<svg id="Layer_1" data-name="Layer 1" xmlns="http://www.w3.org/2000/svg" width="39.34" height="32.56" viewBox="0 0 39.34 32.56">
  <defs>
    <style>
      .cls-1 {
        isolation: isolate;
      }

      .cls-2 {
        fill: #010101;
      }
    </style>
  </defs>
  <title>ambulance</title>
  <g id="_" data-name=" " class="cls-1">
    <g class="cls-1">
      <path class="cls-2" d="M43.55,9.08V33.5a1.27,1.27,0,0,1-.4,1,1.29,1.29,0,0,1-.95.41H38.13a5.43,5.43,0,0,1-9.27,3.83,5.23,5.23,0,0,1-1.59-3.83H19.13a5.43,5.43,0,0,1-5.42,5.42,5.43,5.43,0,0,1-5.43-5.42H5.57a1.32,1.32,0,0,1-1-.41,1.27,1.27,0,0,1-.4-1,1.31,1.31,0,0,1,.4-1,1.35,1.35,0,0,1,1-.4V23.32a3.43,3.43,0,0,1,.27-1.23A3.34,3.34,0,0,1,6.52,21l4.2-4.19a3.18,3.18,0,0,1,1.08-.68A3.18,3.18,0,0,1,13,15.86h3.39V9.08a1.31,1.31,0,0,1,.4-1,1.35,1.35,0,0,1,1-.4H42.2a1.32,1.32,0,0,1,.95.4A1.31,1.31,0,0,1,43.55,9.08ZM8.28,24h8.14V18.58H13.07a.84.84,0,0,0-.47.19L8.47,22.9a1.6,1.6,0,0,0-.19.47Zm7.35,12.77a2.72,2.72,0,0,0,0-3.83A2.72,2.72,0,0,0,11,34.86a2.73,2.73,0,0,0,2.72,2.71A2.62,2.62,0,0,0,15.63,36.77Zm22.5-16.16V16.54a.65.65,0,0,0-.68-.68H32.7V11.11a.63.63,0,0,0-.19-.48.66.66,0,0,0-.49-.19H28a.66.66,0,0,0-.49.19.67.67,0,0,0-.19.48v4.75H22.53a.7.7,0,0,0-.49.19.66.66,0,0,0-.19.49v4.07a.65.65,0,0,0,.68.68h4.74V26a.7.7,0,0,0,.19.49.69.69,0,0,0,.49.18H32a.69.69,0,0,0,.49-.18A.66.66,0,0,0,32.7,26V21.29h4.75a.66.66,0,0,0,.49-.19A.7.7,0,0,0,38.13,20.61ZM34.62,36.77a2.7,2.7,0,1,0-1.92.8A2.6,2.6,0,0,0,34.62,36.77Z" transform="translate(-4.21 -7.72)"/>
    </g>
  </g>
</svg>
