<svg id="Layer_1" data-name="Layer 1" xmlns="http://www.w3.org/2000/svg" width="40.7" height="29.85" viewBox="0 0 40.7 29.85">
  <defs>
    <style>
      .cls-1 {
        isolation: isolate;
      }

      .cls-2 {
        fill: #010101;
      }
    </style>
  </defs>
  <title>cloud</title>
  <g id="_" data-name=" " class="cls-1">
    <g class="cls-1">
      <path class="cls-2" d="M44.55,30.43a8.14,8.14,0,0,1-8.13,8.14H13.35a9.15,9.15,0,0,1-6.71-2.79A9.45,9.45,0,0,1,5.36,24a9.33,9.33,0,0,1,4-3.46c0-.4,0-.7,0-.91a10.46,10.46,0,0,1,3.18-7.68,10.46,10.46,0,0,1,7.67-3.18,10.48,10.48,0,0,1,6.08,1.87,10.85,10.85,0,0,1,4,4.87,5.16,5.16,0,0,1,3.52-1.31,5.43,5.43,0,0,1,5.43,5.43,5.23,5.23,0,0,1-.87,2.92,8.15,8.15,0,0,1,6.29,7.93Z" transform="translate(-3.85 -8.72)"/>
    </g>
  </g>
</svg>
