<svg id="Layer_1" data-name="Layer 1" xmlns="http://www.w3.org/2000/svg" width="38.81" height="34.5" viewBox="0 0 38.81 34.5">
  <defs>
    <style>
      .cls-1 {
        isolation: isolate;
      }

      .cls-2 {
        fill: #010101;
      }
    </style>
  </defs>
  <title>flag</title>
  <g id="_" data-name=" " class="cls-1">
    <g class="cls-1">
      <path class="cls-2" d="M11.27,9.82a2.71,2.71,0,0,1-1.44,2.47V40.73a.69.69,0,0,1-.21.5.73.73,0,0,1-.51.21H7.67a.69.69,0,0,1-.5-.21.66.66,0,0,1-.22-.5V12.29A2.7,2.7,0,0,1,5.52,9.82,2.89,2.89,0,0,1,8.39,6.94a2.74,2.74,0,0,1,2,.85A2.73,2.73,0,0,1,11.27,9.82Zm33.06,1.44V28.39a1.21,1.21,0,0,1-.28.87,3.3,3.3,0,0,1-.89.62q-4.83,2.6-8.29,2.6A8.31,8.31,0,0,1,32.1,32a15.19,15.19,0,0,1-2.44-1.08,13.76,13.76,0,0,0-2.59-1.08,10.53,10.53,0,0,0-3.2-.49q-4.32,0-10.43,3.28a1.61,1.61,0,0,1-.74.2,1.45,1.45,0,0,1-1.43-1.44V14.71A1.51,1.51,0,0,1,12,13.48c.32-.21.91-.53,1.78-1a21.37,21.37,0,0,1,9.45-2.69,15.2,15.2,0,0,1,4.5.65,38.78,38.78,0,0,1,4.92,2,4.36,4.36,0,0,0,2,.42,8.28,8.28,0,0,0,2.64-.47,14.43,14.43,0,0,0,2.47-1.05c.7-.39,1.36-.75,2-1.06a3.89,3.89,0,0,1,1.22-.47,1.45,1.45,0,0,1,1.44,1.44Z" transform="translate(-5.52 -6.94)"/>
    </g>
  </g>
</svg>
