<svg id="Layer_1" data-name="Layer 1" xmlns="http://www.w3.org/2000/svg" width="29.85" height="37.99" viewBox="0 0 29.85 37.99">
  <defs>
    <style>
      .cls-1 {
        isolation: isolate;
      }

      .cls-2 {
        fill: #010101;
      }
    </style>
  </defs>
  <title>hospital</title>
  <g id="_" data-name=" " class="cls-1">
    <g class="cls-1">
      <path class="cls-2" d="M38.13,14.5V41.64A1.38,1.38,0,0,1,36.77,43H9.64a1.32,1.32,0,0,1-1-.41,1.29,1.29,0,0,1-.4-1V14.5a1.37,1.37,0,0,1,1.36-1.35h6.78V7a2,2,0,0,1,2-2H28a2,2,0,0,1,2,2v6.11h6.78a1.31,1.31,0,0,1,1,.4A1.34,1.34,0,0,1,38.13,14.5ZM27.27,40.28h8.14V15.86H30v.68a2,2,0,0,1-2,2H18.46a2,2,0,0,1-2-2v-.68H11V40.28h8.14V35.53a.62.62,0,0,1,.21-.47.61.61,0,0,1,.47-.2H26.6a.68.68,0,0,1,.67.67ZM16.42,22v1.35a.66.66,0,0,1-.2.48.63.63,0,0,1-.48.2H14.39a.68.68,0,0,1-.68-.68V22a.62.62,0,0,1,.2-.48.66.66,0,0,1,.48-.2h1.35a.67.67,0,0,1,.48.2A.66.66,0,0,1,16.42,22Zm0,5.42v1.36a.69.69,0,0,1-.2.48.67.67,0,0,1-.48.2H14.39a.66.66,0,0,1-.48-.2.65.65,0,0,1-.2-.48V27.39a.61.61,0,0,1,.2-.47.63.63,0,0,1,.48-.21h1.35a.7.7,0,0,1,.68.68Zm0,5.43v1.36a.7.7,0,0,1-.68.68H14.39a.63.63,0,0,1-.48-.21.61.61,0,0,1-.2-.47V32.82a.65.65,0,0,1,.2-.48.66.66,0,0,1,.48-.2h1.35a.67.67,0,0,1,.48.2A.69.69,0,0,1,16.42,32.82ZM27.27,15.18V8.4a.68.68,0,0,0-.67-.68H25.24a.68.68,0,0,0-.68.68v2H21.85v-2a.68.68,0,0,0-.68-.68H19.81a.65.65,0,0,0-.47.2.66.66,0,0,0-.21.48v6.78a.63.63,0,0,0,.21.48.65.65,0,0,0,.47.2h1.36a.69.69,0,0,0,.48-.2.66.66,0,0,0,.2-.48v-2h2.71v2a.66.66,0,0,0,.2.48.69.69,0,0,0,.48.2H26.6a.65.65,0,0,0,.47-.2A.62.62,0,0,0,27.27,15.18ZM21.85,22v1.35a.66.66,0,0,1-.2.48.65.65,0,0,1-.48.2H19.81a.61.61,0,0,1-.47-.2.63.63,0,0,1-.21-.48V22a.63.63,0,0,1,.21-.48.65.65,0,0,1,.47-.2h1.36a.69.69,0,0,1,.48.2A.66.66,0,0,1,21.85,22Zm0,5.42v1.36a.68.68,0,0,1-.68.68H19.81a.65.65,0,0,1-.47-.2.66.66,0,0,1-.21-.48V27.39a.72.72,0,0,1,.68-.68h1.36a.66.66,0,0,1,.48.21A.65.65,0,0,1,21.85,27.39ZM27.27,22v1.35a.62.62,0,0,1-.2.48.61.61,0,0,1-.47.2H25.24a.65.65,0,0,1-.48-.2.66.66,0,0,1-.2-.48V22a.66.66,0,0,1,.2-.48.69.69,0,0,1,.48-.2H26.6a.65.65,0,0,1,.47.2A.62.62,0,0,1,27.27,22Zm0,5.42v1.36a.68.68,0,0,1-.67.68H25.24a.68.68,0,0,1-.68-.68V27.39a.65.65,0,0,1,.2-.47.66.66,0,0,1,.48-.21H26.6a.62.62,0,0,1,.47.21A.61.61,0,0,1,27.27,27.39ZM32.7,22v1.35a.66.66,0,0,1-.2.48A.62.62,0,0,1,32,24H30.67a.68.68,0,0,1-.68-.68V22a.62.62,0,0,1,.2-.48.66.66,0,0,1,.48-.2H32a.68.68,0,0,1,.68.68Zm0,5.42v1.36a.69.69,0,0,1-.2.48.66.66,0,0,1-.48.2H30.67a.66.66,0,0,1-.48-.2.65.65,0,0,1-.2-.48V27.39a.61.61,0,0,1,.2-.47.63.63,0,0,1,.48-.21H32a.63.63,0,0,1,.48.21A.65.65,0,0,1,32.7,27.39Zm0,5.43v1.36a.65.65,0,0,1-.2.47.63.63,0,0,1-.48.21H30.67a.63.63,0,0,1-.48-.21.61.61,0,0,1-.2-.47V32.82a.65.65,0,0,1,.2-.48.66.66,0,0,1,.48-.2H32a.66.66,0,0,1,.48.2A.69.69,0,0,1,32.7,32.82Z" transform="translate(-8.28 -5.01)"/>
    </g>
  </g>
</svg>
