<svg id="Layer_1" data-name="Layer 1" xmlns="http://www.w3.org/2000/svg" width="39.42" height="34.49" viewBox="0 0 39.42 34.49">
  <defs>
    <style>
      .cls-1 {
        isolation: isolate;
      }

      .cls-2 {
        fill: #010101;
      }
    </style>
  </defs>
  <title>gift</title>
  <g id="_" data-name=" " class="cls-1">
    <g class="cls-1">
      <path class="cls-2" d="M43.91,16.4v8.21a.77.77,0,0,1-.23.59.81.81,0,0,1-.59.23H40.63V36.11a2.46,2.46,0,0,1-2.47,2.46H10.24a2.46,2.46,0,0,1-2.46-2.46V25.43H5.32a.81.81,0,0,1-.59-.23.77.77,0,0,1-.23-.59V16.4a.79.79,0,0,1,.82-.82H16.61a5.55,5.55,0,0,1-4.07-1.68,5.55,5.55,0,0,1-1.68-4.07,5.55,5.55,0,0,1,1.68-4.07,5.55,5.55,0,0,1,4.07-1.68,5.19,5.19,0,0,1,4.31,2l3.28,4.23,3.29-4.23a5.19,5.19,0,0,1,4.31-2,5.55,5.55,0,0,1,4.07,1.68,5.55,5.55,0,0,1,1.68,4.07,5.55,5.55,0,0,1-1.68,4.07,5.55,5.55,0,0,1-4.07,1.68H43.09a.79.79,0,0,1,.82.82Zm-27.3-4.11h5L18.38,8.16a2.21,2.21,0,0,0-1.77-.8,2.44,2.44,0,0,0-2.46,2.47,2.44,2.44,0,0,0,2.46,2.46ZM28.31,34V15.58H20.1V34a1.15,1.15,0,0,0,.46,1,1.92,1.92,0,0,0,1.18.35h4.93a1.92,1.92,0,0,0,1.18-.35A1.15,1.15,0,0,0,28.31,34Zm5.23-22.38a2.47,2.47,0,0,0,0-3.49,2.35,2.35,0,0,0-1.74-.72,2.19,2.19,0,0,0-1.77.8l-3.21,4.13h5A2.35,2.35,0,0,0,33.54,11.57Z" transform="translate(-4.5 -4.08)"/>
    </g>
  </g>
</svg>
