<svg id="Layer_1" data-name="Layer 1" xmlns="http://www.w3.org/2000/svg" width="39.43" height="37.3" viewBox="0 0 39.43 37.3">
  <defs>
    <style>
      .cls-1 {
        isolation: isolate;
      }

      .cls-2 {
        fill: #010101;
      }
    </style>
  </defs>
  <title>key</title>
  <g id="_" data-name=" " class="cls-1">
    <g class="cls-1">
      <path class="cls-2" d="M42.64,31.07c0,.27-.38.78-1.14,1.55S40.21,33.77,40,33.77a1.41,1.41,0,0,1-.67-.38c-.3-.25-.59-.51-.85-.77l-.91-.94L37,31.07,34.7,33.32l5.16,5.16a2.16,2.16,0,0,1,.65,1.59,3.17,3.17,0,0,1-2.81,2.81,2.15,2.15,0,0,1-1.59-.66L20.39,26.5a14.13,14.13,0,0,1-8.56,3.07A8.23,8.23,0,0,1,3.21,21a13.69,13.69,0,0,1,2.23-7.33,17.73,17.73,0,0,1,5.81-5.81,13.69,13.69,0,0,1,7.33-2.23A8.23,8.23,0,0,1,27.2,14.2a14.13,14.13,0,0,1-3.07,8.55l8.32,8.32,2.25-2.25-.61-.57-.94-.9c-.26-.27-.52-.56-.77-.86a1.32,1.32,0,0,1-.37-.67c0-.26.38-.78,1.14-1.54s1.29-1.15,1.55-1.15a.78.78,0,0,1,.54.23c.09.1.45.44,1.08,1.05l1.92,1.86,2,2q1,1.06,1.71,1.83A2.9,2.9,0,0,1,42.64,31.07ZM21.39,17.76a4.3,4.3,0,0,0,1.32-3.18,4.49,4.49,0,0,0-4.5-4.5,4.47,4.47,0,0,0-4.5,4.5,4.68,4.68,0,0,0,.44,1.94,4.68,4.68,0,0,0-1.94-.44,4.47,4.47,0,0,0-4.5,4.49,4.47,4.47,0,0,0,4.5,4.5,4.49,4.49,0,0,0,4.5-4.5,4.54,4.54,0,0,0-.45-1.94,4.55,4.55,0,0,0,1.95.45A4.3,4.3,0,0,0,21.39,17.76Z" transform="translate(-3.21 -5.58)"/>
    </g>
  </g>
</svg>
