<svg id="Layer_1" data-name="Layer 1" xmlns="http://www.w3.org/2000/svg" width="45.99" height="36.13" viewBox="0 0 45.99 36.13">
  <defs>
    <style>
      .cls-1 {
        isolation: isolate;
      }

      .cls-2 {
        fill: #010101;
      }
    </style>
  </defs>
  <title>leaf</title>
  <g id="_" data-name=" " class="cls-1">
    <g class="cls-1">
      <path class="cls-2" d="M47.2,12.14a24.22,24.22,0,0,1-.52,4.95A21.07,21.07,0,0,1,42,26.92a29.4,29.4,0,0,1-9.17,6.88,24.81,24.81,0,0,1-11.24,2.77,22.42,22.42,0,0,1-7.34-1.21,23.61,23.61,0,0,1-2.26-1.08,7.63,7.63,0,0,0-2.47-1c-.27,0-.61.28-1,.83A16.21,16.21,0,0,0,7.31,36,9,9,0,0,1,6,37.75a2.21,2.21,0,0,1-1.54.82,2.79,2.79,0,0,1-1.31-.28,2.55,2.55,0,0,1-.8-.62,10.7,10.7,0,0,1-.69-1.08c0-.06-.08-.16-.15-.28a1.8,1.8,0,0,1-.14-.26,1.1,1.1,0,0,1-.08-.24,1.34,1.34,0,0,1,0-.35A3.08,3.08,0,0,1,2,33.58,9.18,9.18,0,0,1,3.75,31.9,18.14,18.14,0,0,0,5.5,30.46c.53-.5.79-.91.79-1.23a6.17,6.17,0,0,0-.36-1,9.21,9.21,0,0,1-.41-1.13,15.66,15.66,0,0,1-.23-2.66,14.53,14.53,0,0,1,1.12-5.65,15.2,15.2,0,0,1,3.05-4.73,22.34,22.34,0,0,1,4.38-3.57,23.59,23.59,0,0,1,5.23-2.45,16.72,16.72,0,0,1,3.72-.66c1.54-.13,3.08-.2,4.61-.23S30.46,7.1,32,7a20.59,20.59,0,0,0,4.2-.62A6.51,6.51,0,0,0,39.09,5l.76-.75q.49-.51.75-.72A7.62,7.62,0,0,1,41.29,3a3.13,3.13,0,0,1,.94-.41,5.52,5.52,0,0,1,1.12-.11,2.24,2.24,0,0,1,1.81,1.18,8.76,8.76,0,0,1,1.22,2.87A31.43,31.43,0,0,1,47,9.67,18.45,18.45,0,0,1,47.2,12.14ZM33.57,18.37a1.55,1.55,0,0,0,.49-1.15,1.66,1.66,0,0,0-1.64-1.64,25.11,25.11,0,0,0-8.16,1.27,23.58,23.58,0,0,0-6.66,3.44,42,42,0,0,0-6.05,5.63,1.7,1.7,0,0,0-.48,1.15,1.64,1.64,0,0,0,1.64,1.64,1.7,1.7,0,0,0,1.15-.48c.46-.41,1.1-1,1.9-1.82l1.72-1.7a23.15,23.15,0,0,1,6.89-4.51,21.85,21.85,0,0,1,8.05-1.34A1.55,1.55,0,0,0,33.57,18.37Z" transform="translate(-1.21 -2.44)"/>
    </g>
  </g>
</svg>
