<svg id="Layer_1" data-name="Layer 1" xmlns="http://www.w3.org/2000/svg" width="32.99" height="32.99" viewBox="0 0 32.99 32.99">
  <defs>
    <style>
      .cls-1 {
        isolation: isolate;
      }

      .cls-2 {
        fill: #010101;
      }
    </style>
  </defs>
  <title>phone</title>
  <g id="_" data-name=" " class="cls-1">
    <g class="cls-1">
      <path class="cls-2" d="M40.7,31.63a7.56,7.56,0,0,1-.24,1.66,9.12,9.12,0,0,1-.49,1.6,6.29,6.29,0,0,1-2.85,2.49,9.19,9.19,0,0,1-4.36,1.19,9.78,9.78,0,0,1-1.23-.08,11.27,11.27,0,0,1-1.35-.3c-.5-.14-.87-.25-1.11-.34s-.68-.24-1.3-.47L26.62,37A20.76,20.76,0,0,1,22.52,35a35,35,0,0,1-6.2-5,34.6,34.6,0,0,1-5.05-6.2,20.76,20.76,0,0,1-1.94-4.1c-.05-.14-.19-.52-.43-1.15l-.48-1.3c-.08-.24-.19-.61-.34-1.11a11.08,11.08,0,0,1-.29-1.35,9.9,9.9,0,0,1-.08-1.23A9.19,9.19,0,0,1,8.9,9.16a6.29,6.29,0,0,1,2.49-2.85,8.76,8.76,0,0,1,1.6-.5,8.1,8.1,0,0,1,1.66-.23,1.27,1.27,0,0,1,.49.07c.28.09.69.69,1.24,1.78.17.3.41.72.7,1.27s.57,1,.82,1.48.49.87.73,1.26c.05.06.18.25.41.58a8.25,8.25,0,0,1,.5.83,1.55,1.55,0,0,1,.17.67A2,2,0,0,1,19,14.69,11.83,11.83,0,0,1,17.59,16a14.88,14.88,0,0,0-1.46,1.24,1.8,1.8,0,0,0-.66,1.08,1.51,1.51,0,0,0,.11.53c.08.21.15.37.2.48s.17.3.33.56l.27.45a24.35,24.35,0,0,0,4.08,5.5A24.65,24.65,0,0,0,26,29.9l.45.27.56.33.48.2a1.51,1.51,0,0,0,.53.11,1.76,1.76,0,0,0,1.07-.66,13.7,13.7,0,0,0,1.25-1.46,11.83,11.83,0,0,1,1.29-1.45,1.88,1.88,0,0,1,1.17-.67,1.47,1.47,0,0,1,.66.17,6.06,6.06,0,0,1,.84.5l.58.41c.39.23.81.48,1.26.73l1.48.82c.55.29,1,.53,1.27.7,1.09.55,1.69,1,1.78,1.24A1.27,1.27,0,0,1,40.7,31.63Z" transform="translate(-7.71 -5.58)"/>
    </g>
  </g>
</svg>
